<?xml version="1.0" encoding="UTF-8"?>
<svg version="1.1" viewBox="0 0 30 30" xmlns="http://www.w3.org/2000/svg" xmlns:xlink="http://www.w3.org/1999/xlink">
    <!--Generated by IJSVG (https://github.com/iconjar/IJSVG)-->
    <path d="M11.893,19.169l-1.857,4.645c-0.082,0.203 -0.022,0.436 0.148,0.574c0.171,0.138 0.411,0.149 0.593,0.028l4.223,-2.815l4.223,2.815c0.084,0.056 0.18,0.084 0.277,0.084c0.112,0 0.224,-0.038 0.317,-0.112c0.169,-0.138 0.23,-0.371 0.148,-0.574l-1.857,-4.645l3.693,-2.77c0.173,-0.129 0.242,-0.354 0.175,-0.558c-0.069,-0.204 -0.26,-0.342 -0.475,-0.342h-4.628l-1.394,-4.644c-0.127,-0.423 -0.83,-0.423 -0.957,0l-1.394,4.644h-4.628c-0.215,0 -0.407,0.138 -0.475,0.342c-0.067,0.204 0.002,0.429 0.175,0.558l3.693,2.77Zm1.607,-2.67c0.221,0 0.416,-0.145 0.479,-0.356l1.021,-3.403l1.021,3.405c0.064,0.211 0.258,0.356 0.479,0.356h3.5l-2.8,2.1c-0.181,0.135 -0.248,0.375 -0.164,0.585l1.401,3.505l-3.16,-2.107c-0.084,-0.056 -0.18,-0.084 -0.277,-0.084c-0.097,0 -0.193,0.028 -0.277,0.082l-3.16,2.107l1.401,-3.505c0.084,-0.21 0.017,-0.449 -0.164,-0.585l-2.8,-2.1h3.5Zm-4,-12.999c-0.276,0 -0.5,0.224 -0.5,0.5c0,0.276 0.224,0.5 0.5,0.5c0.276,0 0.5,-0.224 0.5,-0.5c0,-0.276 -0.224,-0.5 -0.5,-0.5Zm17.479,-2h-23.957c-1.666,0 -3.021,1.335 -3.021,2.976v1.519c1.10155e-16,0.002 -0.001,0.003 -0.001,0.005c0,0.002 0.001,0.003 0.001,0.005v19.519c0,1.641 1.355,2.976 3.021,2.976h23.957c1.666,0 3.021,-1.335 3.021,-2.976v-21.048c0,-1.641 -1.355,-2.976 -3.021,-2.976Zm2.02,24.024c0,1.09 -0.907,1.976 -2.021,1.976h-23.957c-1.114,0 -2.021,-0.886 -2.021,-1.976v-19.024h27.999v19.024Zm0,-20.024h-27.999v-1.024c0,-1.09 0.907,-1.976 2.021,-1.976h23.957c1.114,0 2.021,0.886 2.021,1.976v1.024Zm-22.499,-2c-0.276,0 -0.5,0.224 -0.5,0.5c0,0.276 0.224,0.5 0.5,0.5c0.276,0 0.5,-0.224 0.5,-0.5c0,-0.276 -0.224,-0.5 -0.5,-0.5Zm-3,0c-0.276,0 -0.5,0.224 -0.5,0.5c0,0.276 0.224,0.5 0.5,0.5c0.276,0 0.5,-0.224 0.5,-0.5c0,-0.276 -0.224,-0.5 -0.5,-0.5Z" fill="#000"></path>
</svg>