<?xml version="1.0" encoding="UTF-8"?>
<svg version="1.1" viewBox="0 0 24 24" xmlns="http://www.w3.org/2000/svg" xmlns:xlink="http://www.w3.org/1999/xlink">
    <!--Generated by IJSVG (https://github.com/iconjar/IJSVG)-->
    <g fill="#000">
        <path d="M7.5,7h9c0.276,0 0.5,-0.224 0.5,-0.5c0,-0.276 -0.224,-0.5 -0.5,-0.5h-9c-0.276,0 -0.5,0.224 -0.5,0.5c0,0.276 0.224,0.5 0.5,0.5Z"></path>
        <path d="M24,6.62c0,-1.445 -1.176,-2.62 -2.622,-2.62c-0.496,0 -0.968,0.143 -1.378,0.399v-2.899c0,-0.827 -0.673,-1.5 -1.5,-1.5h-17c-0.827,0 -1.5,0.673 -1.5,1.5v21c0,0.827 0.673,1.5 1.5,1.5h17c0.827,0 1.5,-0.673 1.5,-1.5v-10.794l1.85,-1.85c0.001,-0.001 0.002,-0.001 0.003,-0.002c0.001,-0.001 0.001,-0.002 0.002,-0.003l1.377,-1.377c0.496,-0.495 0.768,-1.154 0.768,-1.854Zm-10.234,9.906c-0.163,-0.412 -0.434,-0.903 -0.913,-1.38c-0.478,-0.478 -0.969,-0.749 -1.38,-0.912l3.381,-3.381v0l3.646,-3.645l2.292,2.292l-7.026,7.026Zm-2.895,-1.449c0.323,0.094 0.801,0.302 1.275,0.776c0.474,0.474 0.683,0.953 0.777,1.275l-2.736,0.685l0.684,-2.736Zm8.129,7.423c0,0.276 -0.225,0.5 -0.5,0.5h-17c-0.275,0 -0.5,-0.224 -0.5,-0.5v-2.5h1.092c0.207,0.581 0.757,1 1.408,1c0.827,0 1.5,-0.673 1.5,-1.5c0,-0.827 -0.673,-1.5 -1.5,-1.5c-0.651,0 -1.201,0.419 -1.408,1h-1.092v-4h1.092c0.207,0.581 0.757,1 1.408,1c0.827,0 1.5,-0.673 1.5,-1.5c0,-0.827 -0.673,-1.5 -1.5,-1.5c-0.651,0 -1.201,0.419 -1.408,1h-1.092v-4h1.092c0.207,0.581 0.757,1 1.408,1c0.827,0 1.5,-0.673 1.5,-1.5c0,-0.827 -0.673,-1.5 -1.5,-1.5c-0.651,0 -1.201,0.419 -1.408,1h-1.092v-4h1.092c0.207,0.581 0.757,1 1.408,1c0.827,0 1.5,-0.673 1.5,-1.5c0,-0.827 -0.673,-1.5 -1.5,-1.5c-0.651,0 -1.201,0.419 -1.408,1h-1.092v-2.5c0,-0.276 0.225,-0.5 0.5,-0.5h17c0.275,0 0.5,0.224 0.5,0.5v3.793l-0.854,0.854v0v0l-3.853,3.853h-6.793c-0.276,0 -0.5,0.224 -0.5,0.5c0,0.276 0.224,0.5 0.5,0.5h5.793l-3,3h-2.793c-0.276,0 -0.5,0.224 -0.5,0.5c0,0.276 0.224,0.5 0.5,0.5h2.359l-0.75,3h-1.609c-0.276,0 -0.5,0.224 -0.5,0.5c0,0.276 0.224,0.5 0.5,0.5h2c0.04,0 0.081,-0.005 0.121,-0.016l4,-1c0.011,-0.003 0.019,-0.013 0.03,-0.017c0.066,-0.022 0.125,-0.054 0.176,-0.099c0.008,-0.007 0.019,-0.007 0.026,-0.015l5.147,-5.147v9.794Zm-16,-3c0,-0.276 0.225,-0.5 0.5,-0.5c0.275,0 0.5,0.224 0.5,0.5c0,0.276 -0.225,0.5 -0.5,0.5c-0.275,0 -0.5,-0.224 -0.5,-0.5Zm0,-5c0,-0.276 0.225,-0.5 0.5,-0.5c0.275,0 0.5,0.224 0.5,0.5c0,0.276 -0.225,0.5 -0.5,0.5c-0.275,0 -0.5,-0.224 -0.5,-0.5Zm0,-5c0,-0.276 0.225,-0.5 0.5,-0.5c0.275,0 0.5,0.224 0.5,0.5c0,0.276 -0.225,0.5 -0.5,0.5c-0.275,0 -0.5,-0.224 -0.5,-0.5Zm0,-5c0,-0.276 0.225,-0.5 0.5,-0.5c0.275,0 0.5,0.224 0.5,0.5c0,0.276 -0.225,0.5 -0.5,0.5c-0.275,0 -0.5,-0.224 -0.5,-0.5Zm19.525,3.267l-1.026,1.026l-2.292,-2.293l0.647,-0.647v0l0.38,-0.38c0.305,-0.307 0.712,-0.475 1.147,-0.475c0.893,0 1.62,0.727 1.62,1.622c-0.001,0.434 -0.17,0.84 -0.476,1.147Z"></path>
    </g>
</svg>