<?xml version="1.0" encoding="UTF-8"?>
<svg version="1.1" viewBox="0 0 48 48" xmlns="http://www.w3.org/2000/svg" xmlns:xlink="http://www.w3.org/1999/xlink">
    <!--Generated by IJSVG (https://github.com/iconjar/IJSVG)-->
    <path d="M24,24c-6.075,0 -11,-4.925 -11,-11c0,-6.075 4.925,-11 11,-11c6.075,0 11,4.925 11,11c0,6.075 -4.925,11 -11,11Zm0,-4l-3.0598e-07,-7.10543e-15c3.86599,1.68988e-07 7,-3.13401 7,-7c1.68988e-07,-3.86599 -3.13401,-7 -7,-7l-3.0598e-07,7.10543e-15c-3.86599,1.68988e-07 -7,3.13401 -7,7c1.68988e-07,3.86599 3.13401,7 7,7Zm20.817,14.164c0.35,0.762 0.596,1.86 0.81,3.318l-7.54394e-07,-5.19727e-06c0.148296,1.02166 0.263357,2.04787 0.345,3.077l0.023,0.299l0.00500042,0.142005l1.29319e-12,3.6e-06c0,2.75908 -2.23492,4.99669 -4.994,5h-34.012l-2.06613e-08,-2.47979e-11c-2.75908,-0.00331091 -4.994,-2.24092 -4.994,-5l0.005,-0.142l0.023,-0.299l-6.43848e-07,7.75268e-06c0.0854373,-1.02877 0.200485,-2.05486 0.345,-3.077c0.214,-1.458 0.46,-2.556 0.81,-3.318c1.537,-3.33701 12.852,-8.16401 20.817,-8.16401c7.965,0 19.28,4.827 20.817,8.164Zm-3.837,1.524c-0.28,-0.245 -0.68,-0.539 -1.175,-0.857c-1.108,-0.713 -2.572,-1.475 -4.189,-2.165c-3.876,-1.654 -8.033,-2.666 -11.616,-2.666c-3.583,0 -7.739,1.012 -11.616,2.666c-1.617,0.69 -3.081,1.452 -4.189,2.165c-0.494,0.318 -0.895,0.612 -1.175,0.857c-0.104,0.092 -0.184,0.17 -0.237,0.229c-0.135,0.354 -0.305,1.141 -0.452,2.146c-0.099,0.67 -0.183,1.394 -0.253,2.12c-0.036,0.374 -0.062,0.676 -0.077,0.871l-6.4627e-09,-1.19539e-07c0.0285669,0.528397 0.463839,0.943068 0.993,0.946h34.012l-3.64909e-08,2.02228e-10c0.529161,-0.00293251 0.964433,-0.417603 0.993,-0.946c-0.015,-0.195 -0.04,-0.497 -0.077,-0.87l-1.26934e-06,-1.34171e-05c-0.0670715,-0.708952 -0.15143,-1.41616 -0.253001,-2.121c-0.147,-1.005 -0.317,-1.792 -0.452,-2.146l5.8255e-08,6.32197e-08c-0.0745036,-0.080853 -0.153636,-0.157315 -0.236999,-0.228999Z" fill="#000"></path>
</svg>